<svg width="14" height="17" viewBox="0 0 14 17" fill="none" xmlns="http://www.w3.org/2000/svg">
<path d="M1.17111 7.50468C1.23094 6.72294 1.88271 6.11914 2.66674 6.11914H11.3333C12.1173 6.11914 12.7691 6.72294 12.8289 7.50468L13.3367 14.1403C13.4034 15.0113 12.7146 15.7548 11.8411 15.7548H2.15891C1.28538 15.7548 0.596626 15.0113 0.663283 14.1403L1.17111 7.50468Z" stroke="#C4C4C4"/>
<path d="M4.07007 7.51867V4.05253C4.07007 3.72327 4.09775 3.39326 4.21526 3.08569C4.50921 2.31625 5.32084 0.887608 7.27162 1.00704C9.42963 1.13917 9.97915 2.7368 10.1096 3.33406C10.1419 3.48171 10.1476 3.63311 10.1476 3.78424V7.51867" stroke="#C4C4C4"/>
<circle cx="4.07004" cy="7.62717" r="0.596899" fill="#C4C4C4"/>
<circle cx="10.1472" cy="7.62717" r="0.596899" fill="#C4C4C4"/>
</svg>
